<?xml version="1.0" encoding="UTF-8"?> <!-- Generator: Adobe Illustrator 16.0.3, SVG Export Plug-In . SVG Version: 6.00 Build 0) --> <svg xmlns="http://www.w3.org/2000/svg" xmlns:xlink="http://www.w3.org/1999/xlink" x="0px" y="0px" width="84.5px" height="80.5px" viewBox="0 0 84.5 80.5" xml:space="preserve"> <g id="Layer_1" display="none"> <g display="inline"> <g> <path d="M42.535,23.685c-11.32,0-20.53,9.21-20.53,20.531s9.21,20.531,20.53,20.531c11.32,0,20.53-9.21,20.53-20.531 S53.855,23.685,42.535,23.685z M42.535,61.476c-9.518,0-17.262-7.743-17.262-17.26c0-9.519,7.744-17.262,17.262-17.262 c9.518,0,17.262,7.744,17.262,17.262C59.796,53.732,52.052,61.476,42.535,61.476z"></path> </g> </g> <g display="inline"> <g> <path d="M42.535,31.405c-7.063,0-12.81,5.747-12.81,12.81c0,7.063,5.747,12.81,12.81,12.81s12.81-5.747,12.81-12.81 C55.345,37.152,49.598,31.405,42.535,31.405z M42.535,53.928c-5.356,0-9.713-4.357-9.713-9.712c0-5.356,4.357-9.713,9.713-9.713 c5.355,0,9.713,4.357,9.713,9.713C52.248,49.571,47.891,53.928,42.535,53.928z"></path> </g> </g> <g display="inline"> <g> <path d="M77.338,17.732H56.293l-2.15-5.854C53.512,10.157,51.855,9,50.021,9H35.048c-1.834,0-3.491,1.157-4.123,2.878 l-2.15,5.854h-7.151v-2.294c0-1.85-1.504-3.355-3.355-3.355h-4.952c-1.85,0-3.355,1.505-3.355,3.355v2.294H7.73 c-2.846,0-5.161,2.315-5.161,5.161v42.642c0,2.847,2.315,5.162,5.161,5.162h69.608c2.846,0,5.162-2.315,5.162-5.162V22.894 C82.5,20.048,80.184,17.732,77.338,17.732z M34.155,13.064c0.137-0.373,0.496-0.623,0.894-0.623h14.972 c0.397,0,0.756,0.25,0.894,0.623l1.714,4.668H32.441L34.155,13.064z M13.232,15.438c0-0.047,0.039-0.086,0.086-0.086h4.953 c0.047,0,0.085,0.039,0.085,0.086v2.294h-5.124V15.438z M6.011,30.752h5.096v26.926H6.011V30.752z M79.059,65.536 c0,0.949-0.772,1.721-1.721,1.721H7.73c-0.949,0-1.72-0.771-1.72-1.721v-4.417h6.816c0.951,0,1.721-0.771,1.721-1.721V29.032 c0-0.951-0.77-1.721-1.721-1.721H6.011v-4.418c0-0.948,0.771-1.72,1.72-1.72h47.348c0.005,0,0.01,0,0.014,0 c0.003,0,0.007,0,0.011,0h22.234c0.948,0,1.721,0.772,1.721,1.72v4.418h-6.817c-0.95,0-1.72,0.77-1.72,1.721v30.365 c0,0.95,0.77,1.721,1.72,1.721h6.817V65.536L79.059,65.536z M79.059,57.678h-5.096V30.752h5.096V57.678z"></path> </g> </g> <g display="inline"> <g> <path d="M42.535,37.885c-3.49,0-6.33,2.84-6.33,6.33c0,0.854,0.693,1.548,1.548,1.548c0.855,0,1.549-0.693,1.549-1.548 c0-1.783,1.45-3.233,3.232-3.233c0.855,0,1.549-0.693,1.549-1.549C44.083,38.579,43.389,37.885,42.535,37.885z"></path> </g> </g> </g> <g id="Layer_2" display="none"> <g display="inline"> <path d="M17.415,64.347c-0.291,0-0.576,0.118-0.781,0.325c-0.207,0.204-0.325,0.491-0.325,0.781c0,0.291,0.118,0.576,0.325,0.782 c0.205,0.207,0.489,0.324,0.781,0.324c0.29,0,0.577-0.118,0.782-0.324c0.207-0.206,0.324-0.491,0.324-0.782 c0-0.29-0.118-0.577-0.324-0.781C17.992,64.464,17.705,64.347,17.415,64.347z"></path> <path d="M77.979,52.874l-8.608,8.608c-0.703-0.428-1.525-0.673-2.407-0.673c-0.881,0-1.705,0.246-2.408,0.673L62.675,59.6 c1.075-1.803,0.773-4.231-0.82-5.825l-4.298-4.297c-2.35-2.35-3.644-5.475-3.644-8.8c0-3.324,1.294-6.449,3.644-8.799l4.298-4.296 c1.593-1.594,1.895-4.022,0.82-5.825l1.882-1.882c0.703,0.427,1.526,0.674,2.407,0.674c0.881,0,1.704-0.247,2.407-0.674 l8.608,8.608c0.216,0.216,0.5,0.324,0.782,0.324s0.566-0.108,0.782-0.324c0.432-0.432,0.432-1.132,0-1.563l-8.608-8.608 c0.428-0.703,0.674-1.527,0.674-2.408c0-2.561-2.084-4.645-4.645-4.645c-0.881,0-1.705,0.246-2.407,0.673l-8.608-8.608 c-0.432-0.432-1.132-0.432-1.564,0c-0.432,0.433-0.432,1.132,0,1.565l8.608,8.607c-0.428,0.703-0.674,1.526-0.674,2.407 s0.247,1.705,0.674,2.408l-1.879,1.879c-0.719-0.436-1.548-0.673-2.408-0.673c-1.241,0-2.407,0.483-3.284,1.36l-4.432,4.432 c-2.351,2.351-5.476,3.646-8.8,3.646s-6.449-1.294-8.8-3.646l-4.431-4.432c-0.877-0.877-2.044-1.361-3.285-1.361 c-0.859,0-1.688,0.238-2.407,0.674l-1.88-1.879c0.427-0.703,0.673-1.527,0.673-2.408c0-0.88-0.247-1.705-0.674-2.407l8.608-8.608 c0.432-0.433,0.432-1.132,0-1.564c-0.432-0.432-1.132-0.432-1.563,0l-8.608,8.608c-0.703-0.427-1.527-0.673-2.408-0.673 c-2.561,0-4.645,2.084-4.645,4.645c0,0.881,0.247,1.706,0.673,2.408l-8.608,8.607c-0.432,0.432-0.432,1.132,0,1.564 c0.216,0.216,0.5,0.324,0.782,0.324s0.566-0.108,0.782-0.324l8.608-8.608c0.703,0.427,1.526,0.674,2.407,0.674 s1.705-0.247,2.408-0.674l1.881,1.881c-1.074,1.804-0.773,4.232,0.82,5.826l4.297,4.296c2.35,2.351,3.645,5.476,3.645,8.8 c0,3.325-1.294,6.45-3.645,8.801l-4.297,4.296c-1.593,1.594-1.895,4.022-0.82,5.825l-1.881,1.882 c-0.703-0.428-1.527-0.673-2.408-0.673s-1.705,0.246-2.407,0.673l-8.608-8.608c-0.432-0.432-1.132-0.432-1.564,0 c-0.432,0.432-0.432,1.132,0,1.564l8.608,8.607c-0.427,0.703-0.673,1.527-0.673,2.408c0,2.561,2.084,4.645,4.645,4.645 c0.881,0,1.705-0.246,2.408-0.673l8.608,8.608c0.216,0.215,0.499,0.323,0.782,0.323c0.283,0,0.566-0.108,0.782-0.323 c0.432-0.433,0.432-1.133,0-1.565l-8.608-8.608c0.427-0.702,0.674-1.526,0.674-2.407c0-0.88-0.247-1.705-0.674-2.408l1.88-1.879 c0.719,0.437,1.548,0.675,2.407,0.675c1.241,0,2.407-0.484,3.284-1.361l4.432-4.433c2.351-2.351,5.476-3.646,8.8-3.646 s6.449,1.295,8.8,3.646l4.432,4.432c0.877,0.878,2.044,1.361,3.285,1.361c0.859,0,1.688-0.238,2.407-0.674l1.88,1.879 c-0.427,0.703-0.674,1.527-0.674,2.408c0,0.881,0.247,1.705,0.674,2.407l-8.608,8.608c-0.433,0.432-0.433,1.132,0,1.565 c0.215,0.215,0.499,0.323,0.782,0.323c0.283,0,0.566-0.108,0.781-0.323l8.608-8.608c0.703,0.427,1.527,0.673,2.408,0.673 c2.56,0,4.645-2.084,4.645-4.645c0-0.881-0.247-1.705-0.673-2.408l8.608-8.607c0.432-0.432,0.432-1.132,0-1.564 C79.112,52.441,78.412,52.441,77.979,52.874z M66.964,13.471c1.342,0,2.434,1.091,2.434,2.433c0,1.342-1.092,2.433-2.434,2.433 c-1.342,0-2.434-1.091-2.434-2.433C64.531,14.562,65.622,13.471,66.964,13.471z M14.982,15.903c0-1.341,1.091-2.433,2.433-2.433 s2.433,1.091,2.433,2.433c0,1.342-1.091,2.433-2.433,2.433S14.982,17.245,14.982,15.903z M17.415,67.886 c-1.342,0-2.433-1.092-2.433-2.434c0-1.342,1.091-2.433,2.433-2.433s2.433,1.09,2.433,2.433 C19.848,66.794,18.757,67.886,17.415,67.886z M56.986,58.915l-4.432-4.433c-2.506-2.505-5.76-3.993-9.258-4.252v-6.013 c0-0.611-0.495-1.106-1.106-1.106c-0.61,0-1.105,0.495-1.105,1.106v6.013c-3.499,0.259-6.752,1.747-9.258,4.252l-4.433,4.433 c-0.459,0.459-1.07,0.713-1.719,0.713c-0.71,0-1.384-0.311-1.85-0.852c-0.809-0.941-0.69-2.482,0.264-3.437l4.297-4.298 c2.506-2.505,3.993-5.759,4.252-9.258h6.013c0.611,0,1.106-0.495,1.106-1.105c0-0.611-0.495-1.106-1.106-1.106h-6.013 c-0.259-3.499-1.746-6.752-4.252-9.258l-4.297-4.297c-0.955-0.955-1.073-2.497-0.264-3.438c0.466-0.541,1.14-0.851,1.85-0.851 c0.649,0,1.26,0.252,1.72,0.713l4.432,4.432c2.506,2.506,5.76,3.993,9.258,4.252v6.013c0,0.611,0.495,1.106,1.105,1.106 c0.611,0,1.106-0.496,1.106-1.106v-6.013c3.498-0.259,6.751-1.746,9.258-4.252l4.432-4.433c0.459-0.46,1.07-0.712,1.72-0.712 c0.709,0,1.384,0.311,1.849,0.851c0.81,0.94,0.69,2.483-0.264,3.438l-4.297,4.297c-2.505,2.505-3.993,5.759-4.252,9.258h-6.014 c-0.611,0-1.106,0.495-1.106,1.106c0,0.61,0.495,1.105,1.106,1.105h6.014c0.259,3.499,1.747,6.752,4.252,9.258l4.297,4.298 c0.954,0.954,1.073,2.496,0.264,3.437c-0.465,0.541-1.14,0.852-1.849,0.852C58.056,59.628,57.445,59.375,56.986,58.915z M66.964,67.886c-1.342,0-2.434-1.092-2.434-2.434c0-1.342,1.091-2.433,2.434-2.433c1.342,0,2.434,1.09,2.434,2.433 C69.398,66.794,68.306,67.886,66.964,67.886z"></path> <path d="M66.964,64.347c-0.291,0-0.577,0.118-0.782,0.325c-0.207,0.204-0.324,0.491-0.324,0.781c0,0.291,0.118,0.576,0.324,0.782 c0.205,0.207,0.491,0.324,0.782,0.324s0.576-0.118,0.781-0.324c0.207-0.206,0.325-0.491,0.325-0.782 c0-0.29-0.118-0.577-0.325-0.781C67.541,64.464,67.255,64.347,66.964,64.347z"></path> <path d="M66.964,17.01c0.291,0,0.576-0.118,0.781-0.324c0.207-0.205,0.325-0.492,0.325-0.782c0-0.292-0.118-0.576-0.325-0.781 c-0.205-0.207-0.491-0.325-0.781-0.325s-0.577,0.118-0.782,0.325c-0.207,0.205-0.324,0.489-0.324,0.781 c0,0.291,0.118,0.577,0.324,0.782C66.388,16.892,66.674,17.01,66.964,17.01z"></path> <path d="M17.415,14.798c-0.291,0-0.576,0.118-0.781,0.325c-0.207,0.205-0.325,0.491-0.325,0.781c0,0.291,0.118,0.577,0.325,0.782 c0.205,0.207,0.491,0.324,0.781,0.324c0.29,0,0.577-0.118,0.782-0.324c0.207-0.205,0.324-0.492,0.324-0.782 c0-0.29-0.118-0.576-0.324-0.781C17.992,14.916,17.705,14.798,17.415,14.798z"></path> </g> </g> <g id="Layer_3"> <path fill="#FFFFFF" d="M17.653,64.375h2.306v2.162h-2.306V64.375z"></path> <path fill="#FFFFFF" d="M22.265,64.375h2.307v2.162h-2.307V64.375z"></path> <path fill="#FFFFFF" d="M26.877,64.375h2.306v2.162h-2.306V64.375z"></path> <path fill="#FFFFFF" d="M23.418,7.802c-5.683,0-10.306,4.623-10.306,10.305c0,5.683,4.623,10.306,10.306,10.306 s10.306-4.623,10.306-10.306C33.724,12.424,29.101,7.802,23.418,7.802z M23.418,26.251c-4.49,0-8.144-3.653-8.144-8.144 c0-4.49,3.653-8.143,8.144-8.143s8.144,3.653,8.144,8.143C31.562,22.598,27.908,26.251,23.418,26.251z"></path> <path fill="#FFFFFF" d="M26.806,38.863c0-1.868-1.521-3.387-3.388-3.387c-1.868,0-3.387,1.519-3.387,3.387 c0,1.868,1.519,3.387,3.387,3.387C25.285,42.25,26.806,40.73,26.806,38.863z M23.418,40.088c-0.675,0-1.225-0.55-1.225-1.225 c0-0.676,0.55-1.225,1.225-1.225s1.225,0.549,1.225,1.225C24.643,39.538,24.093,40.088,23.418,40.088z"></path> <path fill="#FFFFFF" d="M23.418,13.567c-2.503,0-4.54,2.037-4.54,4.54c0,2.504,2.037,4.541,4.54,4.541 c2.504,0,4.541-2.037,4.541-4.541C27.958,15.604,25.922,13.567,23.418,13.567z M23.418,20.485c-1.311,0-2.378-1.067-2.378-2.378 c0-1.311,1.067-2.378,2.378-2.378s2.378,1.067,2.378,2.378C25.796,19.418,24.729,20.485,23.418,20.485z"></path> <path fill="#FFFFFF" d="M38.408,30.935v8.072h-2.451V26.179h0.001c1.503-2.328,2.377-5.099,2.377-8.072 c0-8.225-6.692-14.917-14.918-14.917S8.5,9.882,8.5,18.107c0,8.226,6.656,14.918,14.882,14.918c4.066,0,7.819-1.636,10.414-4.283 v44.712c0,0.675-0.478,1.297-1.153,1.297h-1.297v-5.766H15.347v5.766h-1.153c-0.675,0-1.297-0.622-1.297-1.297V30.791h-2.162 v42.664c0,1.867,1.591,3.459,3.459,3.459h18.449c1.867,0,3.315-1.592,3.315-3.459V50.394h2.451v8.071h39.061v-27.53H38.408z M29.184,74.752H17.508v-3.603h11.675V74.752z M23.418,30.863c-7.034,0-12.756-5.722-12.756-12.756 c0-7.034,5.722-12.755,12.756-12.755s12.756,5.722,12.756,12.755C36.174,25.141,30.452,30.863,23.418,30.863z M38.408,48.231 h-2.451v-7.062h2.451V48.231z M75.307,56.303H40.57V33.098h34.737V56.303z"></path> <path fill="#FFFFFF" d="M72.856,35.547H43.021v18.305h29.836V35.547z M70.694,51.691H45.183V37.709h25.511V51.691z"></path> </g> </svg> 