<?xml version="1.0" encoding="UTF-8"?> <!-- Generator: Adobe Illustrator 16.0.3, SVG Export Plug-In . SVG Version: 6.00 Build 0) --> <svg xmlns="http://www.w3.org/2000/svg" xmlns:xlink="http://www.w3.org/1999/xlink" id="Layer_1" x="0px" y="0px" width="84.5px" height="80.5px" viewBox="0 0 84.5 80.5" xml:space="preserve"> <g id="Layer_1_2_" display="none"> <g id="Layer_1_1_" display="inline"> <g> <g> <path d="M42.535,23.685c-11.32,0-20.53,9.21-20.53,20.531c0,11.321,9.21,20.531,20.53,20.531s20.529-9.21,20.529-20.531 C63.064,32.895,53.855,23.685,42.535,23.685z M42.535,61.477c-9.518,0-17.262-7.744-17.262-17.261 c0-9.519,7.744-17.262,17.262-17.262c9.518,0,17.262,7.744,17.262,17.262C59.796,53.732,52.052,61.477,42.535,61.477z"></path> </g> </g> <g> <g> <path d="M42.535,31.405c-7.063,0-12.81,5.747-12.81,12.81c0,7.063,5.747,12.811,12.81,12.811 c7.063,0,12.811-5.748,12.811-12.811C55.346,37.152,49.598,31.405,42.535,31.405z M42.535,53.928 c-5.356,0-9.713-4.357-9.713-9.712c0-5.356,4.357-9.713,9.713-9.713c5.355,0,9.713,4.357,9.713,9.713 C52.248,49.57,47.891,53.928,42.535,53.928z"></path> </g> </g> <g> <g> <path d="M77.338,17.732H56.293l-2.15-5.854C53.512,10.157,51.855,9,50.021,9H35.048c-1.834,0-3.491,1.157-4.123,2.878 l-2.15,5.854h-7.151v-2.294c0-1.85-1.504-3.355-3.355-3.355h-4.952c-1.85,0-3.355,1.505-3.355,3.355v2.294H7.73 c-2.846,0-5.161,2.315-5.161,5.161v42.642c0,2.847,2.315,5.162,5.161,5.162h69.608c2.846,0,5.162-2.315,5.162-5.162V22.894 C82.5,20.048,80.184,17.732,77.338,17.732z M34.155,13.064c0.137-0.373,0.496-0.623,0.894-0.623h14.973 c0.396,0,0.756,0.25,0.895,0.623l1.714,4.668H32.441L34.155,13.064z M13.232,15.438c0-0.047,0.039-0.086,0.086-0.086h4.953 c0.047,0,0.085,0.039,0.085,0.086v2.294h-5.124V15.438z M6.011,30.752h5.096v26.926H6.011V30.752z M79.059,65.536 c0,0.948-0.771,1.721-1.721,1.721H7.73c-0.949,0-1.72-0.771-1.72-1.721v-4.417h6.816c0.951,0,1.721-0.771,1.721-1.721V29.032 c0-0.951-0.77-1.721-1.721-1.721H6.011v-4.418c0-0.948,0.771-1.72,1.72-1.72h47.348c0.005,0,0.01,0,0.014,0 c0.003,0,0.007,0,0.011,0h22.234c0.948,0,1.721,0.772,1.721,1.72v4.418h-6.815c-0.95,0-1.722,0.77-1.722,1.721v30.364 c0,0.951,0.771,1.722,1.722,1.722h6.815V65.536L79.059,65.536z M79.059,57.678h-5.096V30.752h5.096V57.678z"></path> </g> </g> <g> <g> <path d="M42.535,37.885c-3.49,0-6.33,2.84-6.33,6.33c0,0.854,0.693,1.549,1.548,1.549s1.549-0.693,1.549-1.549 c0-1.783,1.45-3.232,3.232-3.232c0.854,0,1.549-0.692,1.549-1.548C44.083,38.579,43.389,37.885,42.535,37.885z"></path> </g> </g> </g> <g id="Layer_2" display="inline"> <g> <path d="M17.415,64.348c-0.291,0-0.576,0.117-0.781,0.324c-0.207,0.204-0.325,0.491-0.325,0.781c0,0.291,0.118,0.576,0.325,0.781 c0.205,0.207,0.489,0.324,0.781,0.324c0.29,0,0.577-0.117,0.782-0.324c0.207-0.205,0.324-0.49,0.324-0.781 c0-0.29-0.118-0.577-0.324-0.781C17.992,64.464,17.705,64.348,17.415,64.348z"></path> <path d="M77.979,52.874l-8.606,8.608c-0.703-0.428-1.524-0.674-2.407-0.674c-0.881,0-1.705,0.246-2.406,0.674L62.675,59.6 c1.075-1.803,0.773-4.229-0.819-5.824l-4.299-4.297c-2.35-2.351-3.644-5.476-3.644-8.801c0-3.324,1.294-6.449,3.644-8.799 l4.299-4.296c1.594-1.594,1.896-4.022,0.819-5.825l1.882-1.882c0.703,0.427,1.526,0.674,2.407,0.674 c0.882,0,1.704-0.247,2.407-0.674l8.607,8.608c0.217,0.216,0.5,0.324,0.783,0.324c0.28,0,0.564-0.108,0.78-0.324 c0.433-0.432,0.433-1.132,0-1.563l-8.606-8.608c0.428-0.703,0.674-1.527,0.674-2.408c0-2.563-2.084-4.646-4.646-4.646 c-0.881,0-1.705,0.246-2.406,0.673l-8.607-8.608c-0.432-0.432-1.133-0.432-1.564,0c-0.432,0.433-0.432,1.132,0,1.565l8.608,8.607 c-0.429,0.703-0.675,1.526-0.675,2.407c0,0.881,0.248,1.705,0.675,2.408l-1.88,1.879c-0.719-0.436-1.547-0.673-2.407-0.673 c-1.241,0-2.407,0.483-3.284,1.36L50.99,25.31c-2.352,2.351-5.477,3.646-8.8,3.646c-3.323,0-6.449-1.294-8.8-3.646l-4.431-4.432 c-0.877-0.877-2.044-1.361-3.285-1.361c-0.859,0-1.688,0.238-2.407,0.674l-1.88-1.879c0.427-0.703,0.673-1.527,0.673-2.408 c0-0.88-0.247-1.705-0.674-2.407l8.608-8.608c0.432-0.433,0.432-1.132,0-1.564c-0.432-0.432-1.132-0.432-1.563,0l-8.608,8.608 c-0.703-0.427-1.527-0.673-2.408-0.673c-2.561,0-4.645,2.084-4.645,4.646c0,0.881,0.247,1.706,0.673,2.408L4.835,26.92 c-0.432,0.432-0.432,1.132,0,1.564c0.216,0.216,0.5,0.324,0.782,0.324c0.282,0,0.566-0.108,0.782-0.324l8.608-8.608 c0.703,0.427,1.526,0.674,2.407,0.674s1.705-0.247,2.408-0.674l1.881,1.881c-1.074,1.804-0.773,4.232,0.82,5.826l4.297,4.296 c2.35,2.351,3.645,5.476,3.645,8.8c0,3.325-1.294,6.45-3.645,8.801l-4.297,4.295c-1.593,1.595-1.895,4.021-0.82,5.826 l-1.881,1.881c-0.703-0.428-1.527-0.672-2.408-0.672s-1.705,0.246-2.407,0.672l-8.608-8.607c-0.432-0.432-1.132-0.432-1.564,0 s-0.432,1.132,0,1.564l8.608,8.605c-0.427,0.703-0.673,1.527-0.673,2.408c0,2.563,2.084,4.646,4.645,4.646 c0.881,0,1.705-0.246,2.408-0.675l8.608,8.608c0.216,0.215,0.499,0.322,0.782,0.322c0.283,0,0.566-0.107,0.782-0.322 c0.432-0.434,0.432-1.135,0-1.565l-8.608-8.606c0.427-0.702,0.674-1.526,0.674-2.407c0-0.88-0.247-1.705-0.674-2.408l1.88-1.879 c0.719,0.437,1.548,0.675,2.407,0.675c1.241,0,2.407-0.484,3.284-1.361l4.432-4.433c2.351-2.351,5.476-3.646,8.8-3.646 s6.449,1.295,8.8,3.646l4.432,4.433c0.877,0.877,2.044,1.36,3.285,1.36c0.859,0,1.688-0.237,2.406-0.674l1.881,1.879 c-0.428,0.703-0.674,1.527-0.674,2.408s0.246,1.705,0.674,2.407l-8.607,8.606c-0.434,0.433-0.434,1.134,0,1.565 c0.215,0.215,0.498,0.322,0.781,0.322s0.566-0.107,0.781-0.322l8.607-8.608c0.702,0.429,1.526,0.675,2.407,0.675 c2.562,0,4.646-2.084,4.646-4.646c0-0.881-0.246-1.705-0.672-2.408l8.606-8.605c0.433-0.434,0.433-1.133,0-1.564 C79.111,52.441,78.412,52.441,77.979,52.874z M66.964,13.471c1.343,0,2.435,1.091,2.435,2.433c0,1.342-1.092,2.433-2.435,2.433 c-1.342,0-2.435-1.091-2.435-2.433C64.531,14.562,65.622,13.471,66.964,13.471z M14.982,15.903c0-1.341,1.091-2.433,2.433-2.433 s2.433,1.091,2.433,2.433c0,1.342-1.091,2.433-2.433,2.433S14.982,17.245,14.982,15.903z M17.415,67.886 c-1.342,0-2.433-1.092-2.433-2.434c0-1.343,1.091-2.433,2.433-2.433s2.433,1.09,2.433,2.433 C19.848,66.794,18.757,67.886,17.415,67.886z M56.986,58.915l-4.432-4.433c-2.508-2.506-5.762-3.993-9.26-4.252v-6.015 c0-0.61-0.495-1.104-1.106-1.104c-0.61,0-1.105,0.494-1.105,1.104v6.015c-3.499,0.259-6.752,1.746-9.258,4.252l-4.433,4.433 c-0.459,0.459-1.07,0.713-1.719,0.713c-0.71,0-1.384-0.312-1.85-0.853c-0.809-0.94-0.69-2.481,0.264-3.438l4.297-4.298 c2.506-2.505,3.993-5.759,4.252-9.258h6.013c0.611,0,1.106-0.495,1.106-1.105c0-0.611-0.495-1.104-1.106-1.104h-6.013 c-0.259-3.499-1.746-6.752-4.252-9.258l-4.297-4.297c-0.955-0.955-1.073-2.497-0.264-3.438c0.466-0.541,1.14-0.851,1.85-0.851 c0.649,0,1.26,0.252,1.72,0.713l4.432,4.432c2.506,2.506,5.76,3.993,9.258,4.252v6.013c0,0.611,0.495,1.106,1.105,1.106 c0.611,0,1.106-0.496,1.106-1.106v-6.013c3.498-0.259,6.751-1.746,9.26-4.252l4.432-4.433c0.459-0.46,1.07-0.712,1.72-0.712 c0.709,0,1.384,0.311,1.849,0.851c0.812,0.94,0.69,2.483-0.264,3.438l-4.297,4.297c-2.506,2.505-3.993,5.759-4.252,9.258h-6.014 c-0.611,0-1.106,0.495-1.106,1.104c0,0.61,0.495,1.105,1.106,1.105h6.014c0.259,3.499,1.746,6.752,4.252,9.258l4.297,4.298 c0.954,0.954,1.072,2.496,0.264,3.438c-0.465,0.541-1.14,0.853-1.849,0.853C58.057,59.628,57.445,59.375,56.986,58.915z M66.964,67.886c-1.342,0-2.435-1.092-2.435-2.434c0-1.343,1.092-2.433,2.435-2.433s2.435,1.09,2.435,2.433 C69.398,66.794,68.307,67.886,66.964,67.886z"></path> <path d="M66.964,64.348c-0.291,0-0.577,0.117-0.782,0.324c-0.207,0.204-0.324,0.491-0.324,0.781c0,0.291,0.119,0.576,0.324,0.781 c0.205,0.207,0.491,0.324,0.782,0.324s0.576-0.117,0.781-0.324c0.207-0.205,0.325-0.49,0.325-0.781 c0-0.29-0.118-0.577-0.325-0.781C67.541,64.464,67.255,64.348,66.964,64.348z"></path> <path d="M66.964,17.01c0.291,0,0.576-0.118,0.781-0.324c0.207-0.205,0.325-0.492,0.325-0.782c0-0.292-0.118-0.576-0.325-0.781 c-0.205-0.207-0.491-0.325-0.781-0.325s-0.577,0.118-0.782,0.325c-0.207,0.205-0.324,0.489-0.324,0.781 c0,0.291,0.119,0.577,0.324,0.782C66.389,16.892,66.674,17.01,66.964,17.01z"></path> <path d="M17.415,14.798c-0.291,0-0.576,0.118-0.781,0.325c-0.207,0.205-0.325,0.491-0.325,0.781c0,0.291,0.118,0.577,0.325,0.782 c0.205,0.207,0.491,0.324,0.781,0.324s0.577-0.118,0.782-0.324c0.207-0.205,0.324-0.492,0.324-0.782 c0-0.29-0.118-0.576-0.324-0.781C17.992,14.916,17.705,14.798,17.415,14.798z"></path> </g> </g> <g id="Layer_3" display="inline"> <path fill="#FFFFFF" d="M17.653,64.375h2.306v2.162h-2.306V64.375z"></path> <path fill="#FFFFFF" d="M22.265,64.375h2.307v2.162h-2.307V64.375z"></path> <path fill="#FFFFFF" d="M26.877,64.375h2.306v2.162h-2.306V64.375z"></path> <path fill="#FFFFFF" d="M23.418,7.802c-5.683,0-10.306,4.623-10.306,10.305c0,5.683,4.623,10.306,10.306,10.306 s10.306-4.623,10.306-10.306S29.101,7.802,23.418,7.802z M23.418,26.251c-4.49,0-8.144-3.653-8.144-8.144 c0-4.49,3.653-8.143,8.144-8.143s8.144,3.653,8.144,8.143C31.562,22.598,27.908,26.251,23.418,26.251z"></path> <path fill="#FFFFFF" d="M26.806,38.863c0-1.868-1.521-3.387-3.388-3.387c-1.868,0-3.387,1.519-3.387,3.387 c0,1.868,1.519,3.387,3.387,3.387C25.285,42.25,26.806,40.73,26.806,38.863z M23.418,40.088c-0.675,0-1.225-0.55-1.225-1.225 c0-0.676,0.55-1.225,1.225-1.225s1.225,0.549,1.225,1.225C24.643,39.538,24.093,40.088,23.418,40.088z"></path> <path fill="#FFFFFF" d="M23.418,13.567c-2.503,0-4.54,2.037-4.54,4.54c0,2.504,2.037,4.541,4.54,4.541 c2.504,0,4.541-2.037,4.541-4.541C27.958,15.604,25.922,13.567,23.418,13.567z M23.418,20.485c-1.311,0-2.378-1.067-2.378-2.378 s1.067-2.378,2.378-2.378s2.378,1.067,2.378,2.378S24.729,20.485,23.418,20.485z"></path> <path fill="#FFFFFF" d="M38.408,30.935v8.072h-2.451V26.179h0.001c1.503-2.328,2.377-5.099,2.377-8.072 c0-8.225-6.692-14.917-14.918-14.917S8.5,9.882,8.5,18.107c0,8.226,6.656,14.918,14.882,14.918c4.066,0,7.819-1.636,10.414-4.283 v44.712c0,0.675-0.478,1.297-1.153,1.297h-1.297v-5.767H15.347v5.767h-1.153c-0.675,0-1.297-0.622-1.297-1.297V30.791h-2.162 v42.664c0,1.867,1.591,3.459,3.459,3.459h18.449c1.867,0,3.315-1.592,3.315-3.459V50.395h2.451v8.07h39.062v-27.53H38.408z M29.184,74.752H17.508v-3.604h11.675L29.184,74.752L29.184,74.752z M23.418,30.863c-7.034,0-12.756-5.722-12.756-12.756 c0-7.034,5.722-12.755,12.756-12.755s12.756,5.722,12.756,12.755C36.174,25.141,30.452,30.863,23.418,30.863z M38.408,48.23 h-2.451v-7.063h2.451V48.23z M75.307,56.303H40.57V33.098h34.737V56.303z"></path> <path fill="#FFFFFF" d="M72.855,35.547H43.021v18.305h29.836V35.547H72.855z M70.693,51.691h-25.51V37.709h25.51V51.691z"></path> </g> </g> <g id="Layer_2_1_" display="none"> <path display="inline" fill="#FFFFFF" d="M54.604,5v2.22c7.248,0,13.146,5.897,13.146,13.146l2.221,0.001 C69.973,11.895,63.075,5,54.604,5z M54.604,8.836v2.222c5.138,0,9.311,4.175,9.311,9.31h2.223 C66.137,14.011,60.961,8.836,54.604,8.836z M60.074,19.129v53.68c0,2.305-1.883,4.191-4.189,4.191H28.217 c-2.302,0-4.189-1.889-4.189-4.191v-53.68c0-2.305,1.887-4.189,4.189-4.189h27.667C58.191,14.94,60.074,16.824,60.074,19.129z M37.121,18.468c0,0.28,0.225,0.506,0.51,0.506h8.852c0.279,0,0.511-0.224,0.511-0.506c0-0.282-0.229-0.51-0.511-0.51h-8.852 C37.346,17.959,37.121,18.188,37.121,18.468z M44.148,72.809c0-1.16-0.937-2.093-2.092-2.093c-1.156,0-2.095,0.933-2.095,2.093 c0,1.157,0.939,2.098,2.095,2.098C43.209,74.905,44.148,73.966,44.148,72.809z M57.162,21.584H26.944v47.657h30.218V21.584z"></path> </g> <g id="Layer_3_1_" display="none"> <g display="inline"> <g> <path d="M43.001,13.322c0.7,0,1.269-0.567,1.269-1.268V5.36c0-0.701-0.567-1.268-1.269-1.268s-1.268,0.567-1.268,1.268v6.694 C41.733,12.754,42.3,13.322,43.001,13.322z"></path> <path d="M36.775,14.275c0.248,0.247,0.572,0.371,0.896,0.371c0.324,0,0.649-0.124,0.896-0.371c0.495-0.496,0.495-1.298,0-1.793 l-4.734-4.733c-0.495-0.495-1.297-0.495-1.792,0s-0.495,1.298,0,1.792L36.775,14.275z"></path> <path d="M48.331,14.646c0.323,0,0.649-0.124,0.896-0.371l4.733-4.733c0.495-0.496,0.495-1.298-0.001-1.793 c-0.494-0.495-1.297-0.495-1.792,0l-4.731,4.733c-0.496,0.495-0.496,1.298,0,1.792C47.684,14.522,48.007,14.646,48.331,14.646z"></path> <path d="M36.064,34.249c0.333,0,0.659-0.135,0.896-0.372c0.236-0.237,0.372-0.563,0.372-0.896s-0.136-0.661-0.372-0.897 c-0.235-0.235-0.563-0.37-0.896-0.37c-0.335,0-0.661,0.135-0.896,0.37c-0.236,0.236-0.372,0.563-0.372,0.897 c0,0.333,0.135,0.659,0.372,0.896C35.403,34.114,35.73,34.249,36.064,34.249z"></path> <path d="M66.867,71.164l-6.941-3.26l-2.119-12.235c1.694-0.563,3.16-1.647,4.209-3.134c1.295-1.837,1.797-4.068,1.412-6.282 L58.475,17.66c-0.119-0.69-0.775-1.152-1.466-1.033l-14.008,2.427l-14.008-2.426c-0.691-0.121-1.346,0.342-1.466,1.032 l-4.953,28.593c-0.718,4.146,1.746,8.122,5.621,9.415l-2.12,12.236l-6.942,3.26c-0.5,0.234-0.792,0.77-0.717,1.316 c0.074,0.549,0.495,0.984,1.04,1.08l13.448,2.328c0.073,0.014,0.145,0.021,0.217,0.021c0.01,0,0.02,0,0.03,0 c0.688-0.015,1.24-0.577,1.24-1.269c0-0.38-0.167-0.721-0.431-0.953l-5.387-5.352l2.12-12.236c0.06,0.002,0.12,0.004,0.179,0.004 c4.099,0,7.582-2.936,8.282-6.979L43,26.921l3.848,22.203c0.699,4.044,4.184,6.979,8.28,6.979l0,0 c0.06,0,0.119-0.002,0.181-0.004l2.118,12.236l-5.44,5.405c-0.393,0.391-0.486,0.989-0.231,1.481 c0.22,0.426,0.657,0.686,1.126,0.686c0.071,0,0.145-0.006,0.217-0.02l13.447-2.328c0.546-0.096,0.967-0.533,1.04-1.08 C67.659,71.934,67.368,71.398,66.867,71.164z M29.81,19.342l11.584,2.007l-1.038,5.995l-11.584-2.007L29.81,19.342z M29.861,53.48c-3.194-0.554-5.342-3.603-4.789-6.795l3.266-18.852l11.584,2.007l-3.266,18.851 c-0.489,2.826-2.921,4.877-5.783,4.877C30.537,53.568,30.196,53.539,29.861,53.48z M29.375,72.705l-5.522-0.955l3.096-1.454 L29.375,72.705z M49.346,48.691L46.08,29.841l11.583-2.007l3.267,18.852c0.269,1.547-0.082,3.104-0.986,4.39 c-0.904,1.282-2.254,2.138-3.803,2.405c-0.334,0.059-0.675,0.088-1.012,0.088C52.268,53.568,49.835,51.518,49.346,48.691z M56.191,19.342l1.039,5.995l-11.584,2.007l-1.039-5.995L56.191,19.342z M56.627,72.705l2.428-2.409l3.094,1.454L56.627,72.705z"></path> <path d="M49.521,30.845c-0.334,0-0.66,0.135-0.896,0.372c-0.234,0.235-0.37,0.562-0.37,0.896c0,0.333,0.136,0.661,0.37,0.896 c0.236,0.236,0.564,0.372,0.896,0.372c0.334,0,0.66-0.135,0.896-0.372c0.236-0.235,0.371-0.563,0.371-0.896 c0-0.334-0.135-0.661-0.371-0.896C50.184,30.98,49.855,30.845,49.521,30.845z"></path> <path d="M57.254,33.009c0.236-0.235,0.372-0.563,0.372-0.896c0-0.333-0.136-0.661-0.372-0.896 c-0.236-0.237-0.563-0.372-0.896-0.372s-0.66,0.135-0.896,0.372c-0.234,0.235-0.371,0.563-0.371,0.896 c0,0.333,0.137,0.661,0.371,0.896c0.236,0.236,0.563,0.372,0.896,0.372C56.689,33.38,57.018,33.245,57.254,33.009z"></path> <path d="M53.557,35.512c-0.336,0-0.662,0.135-0.897,0.372c-0.235,0.235-0.37,0.562-0.37,0.896c0,0.334,0.135,0.661,0.37,0.896 c0.235,0.235,0.563,0.371,0.897,0.371c0.332,0,0.658-0.136,0.896-0.371c0.235-0.236,0.372-0.563,0.372-0.896 c0-0.333-0.137-0.661-0.372-0.896C54.217,35.646,53.889,35.512,53.557,35.512z"></path> <path d="M29.644,35.089c-0.333,0-0.659,0.135-0.896,0.37c-0.234,0.237-0.372,0.563-0.372,0.898c0,0.333,0.137,0.659,0.372,0.896 c0.237,0.237,0.563,0.372,0.896,0.372s0.661-0.135,0.898-0.372c0.235-0.237,0.37-0.563,0.37-0.896 c0-0.335-0.135-0.661-0.37-0.898C30.305,35.224,29.979,35.089,29.644,35.089z"></path> <path d="M35.688,39.275c0-0.333-0.135-0.661-0.372-0.896c-0.235-0.236-0.563-0.372-0.896-0.372s-0.659,0.135-0.896,0.372 c-0.237,0.235-0.372,0.563-0.372,0.896c0,0.335,0.135,0.661,0.372,0.896c0.236,0.236,0.563,0.371,0.896,0.371 s0.661-0.135,0.896-0.371C35.553,39.937,35.688,39.609,35.688,39.275z"></path> </g> </g> </g> <g id="Layer_4"> <path fill="#FFFFFF" d="M42.025,30.252c3.902,0,7.065-3.163,7.065-7.066c0-3.901-3.163-7.065-7.065-7.065 c-3.903,0-7.066,3.164-7.066,7.065C34.964,27.087,38.125,30.247,42.025,30.252z M42.025,18.946c2.342,0,4.239,1.898,4.239,4.239 c0,2.342-1.896,4.24-4.239,4.24c-2.341,0-4.239-1.898-4.239-4.24C37.786,20.844,39.684,18.946,42.025,18.946z"></path> <path fill="#FFFFFF" d="M22.241,30.252c2.341,0,4.24-1.898,4.24-4.24c0-2.342-1.898-4.239-4.24-4.239 c-2.342,0-4.239,1.898-4.239,4.239C18.002,28.353,19.899,30.252,22.241,30.252z M22.241,24.599c0.781,0,1.414,0.633,1.414,1.413 c0,0.78-0.633,1.413-1.414,1.413c-0.78,0-1.413-0.633-1.413-1.413C20.828,25.232,21.46,24.599,22.241,24.599z"></path> <path fill="#FFFFFF" d="M54.744,61.342V42.97c0-2.341-1.898-4.239-4.24-4.239H13.762c-2.341,0-4.239,1.898-4.239,4.239v18.372 c0,2.342,1.898,4.239,4.239,4.239h36.742C52.846,65.581,54.744,63.684,54.744,61.342z M12.349,61.342V42.97 c0-0.778,0.633-1.411,1.413-1.411h36.742c0.781,0,1.414,0.633,1.414,1.411v18.372c0,0.78-0.633,1.413-1.414,1.413H13.762 C12.981,62.755,12.349,62.122,12.349,61.342z"></path> <path fill="#FFFFFF" d="M45.438,71.234h6.48c3.938-0.008,7.354-2.721,8.25-6.558l18.125,6.476c0.434,0.154,0.914,0.089,1.29-0.176 c0.375-0.267,0.599-0.696,0.599-1.156V33.078c0-0.475-0.238-0.918-0.636-1.179c-0.397-0.261-0.897-0.306-1.335-0.12l-18.07,7.744 c-0.938-3.781-4.328-6.438-8.223-6.445h-1.917c4.271-3.438,5.854-9.227,3.933-14.361c-1.924-5.134-6.922-8.457-12.4-8.242 c-5.479,0.215-10.203,3.918-11.719,9.187c-2.343-2.797-6.036-4.075-9.607-3.326c-3.571,0.75-6.438,3.406-7.458,6.91 c-1.021,3.503-0.028,7.284,2.582,9.833H12.35c-4.681,0.005-8.474,3.798-8.479,8.479v21.196c0.005,4.683,3.798,8.476,8.479,8.479 h7.894 M31.305,71.234h3.069 M60.396,42.489l16.957-7.267v32.592l-16.957-6.049V42.489z M38.371,71.234h3.069 M42.025,13.293 c5.463,0,9.893,4.43,9.893,9.892c0,5.464-4.43,9.893-9.893,9.893c-5.464,0-9.892-4.429-9.892-9.893 C32.139,17.725,36.564,13.3,42.025,13.293z M31.293,29.983c0.745,1.174,1.676,2.22,2.756,3.095h-4.898 C30.057,32.193,30.784,31.143,31.293,29.983z M15.175,26.012c0-3.902,3.163-7.066,7.065-7.066c3.902,0,7.066,3.164,7.066,7.066 c0,3.903-3.164,7.066-7.066,7.066C18.34,33.073,15.18,29.913,15.175,26.012z M12.349,68.408c-3.123,0-5.653-2.532-5.653-5.653 V41.559c0-3.123,2.53-5.653,5.653-5.653h39.569c3.121,0,5.652,2.531,5.652,5.653v21.196c0,3.121-2.531,5.653-5.652,5.653H12.349z M24.239,71.234h3.069"></path> </g> </svg> 