<?xml version="1.0" encoding="UTF-8"?> <!-- Generator: Adobe Illustrator 16.0.3, SVG Export Plug-In . SVG Version: 6.00 Build 0) --> <svg xmlns="http://www.w3.org/2000/svg" xmlns:xlink="http://www.w3.org/1999/xlink" id="Layer_1" x="0px" y="0px" width="84.5px" height="80.5px" viewBox="0 0 84.5 80.5" xml:space="preserve"> <g id="Layer_3_1_"> <g> <g> <path fill="#FFFFFF" d="M42.878,13.504c0.7,0,1.269-0.567,1.269-1.268V5.542c0-0.701-0.567-1.268-1.269-1.268 S41.61,4.841,41.61,5.542v6.694C41.61,12.936,42.177,13.504,42.878,13.504z"></path> <path fill="#FFFFFF" d="M36.651,14.457c0.248,0.247,0.572,0.371,0.896,0.371s0.648-0.124,0.896-0.371 c0.494-0.496,0.494-1.298,0-1.793L33.71,7.931c-0.495-0.495-1.297-0.495-1.792,0s-0.495,1.298,0,1.792L36.651,14.457z"></path> <path fill="#FFFFFF" d="M48.208,14.828c0.323,0,0.649-0.124,0.896-0.371l4.733-4.733c0.495-0.496,0.495-1.298-0.001-1.793 c-0.494-0.495-1.297-0.495-1.792,0l-4.731,4.733c-0.496,0.495-0.496,1.298,0,1.792C47.561,14.704,47.884,14.828,48.208,14.828z"></path> <path fill="#FFFFFF" d="M35.94,34.431c0.334,0,0.66-0.135,0.896-0.372c0.236-0.237,0.372-0.563,0.372-0.896 s-0.136-0.661-0.372-0.897c-0.234-0.235-0.563-0.37-0.896-0.37s-0.66,0.135-0.896,0.37c-0.235,0.236-0.372,0.563-0.372,0.897 c0,0.333,0.135,0.659,0.372,0.896C35.28,34.296,35.606,34.431,35.94,34.431z"></path> <path fill="#FFFFFF" d="M66.744,71.346l-6.941-3.26l-2.119-12.235c1.694-0.563,3.16-1.647,4.209-3.134 c1.295-1.837,1.797-4.068,1.412-6.282l-4.953-28.593c-0.119-0.69-0.775-1.152-1.466-1.033l-14.008,2.427L28.87,16.81 c-0.691-0.121-1.346,0.342-1.467,1.032l-4.952,28.593c-0.718,4.146,1.745,8.122,5.62,9.415l-2.119,12.236l-6.942,3.26 c-0.5,0.234-0.792,0.77-0.717,1.316c0.074,0.549,0.495,0.984,1.04,1.08L32.78,76.07c0.074,0.014,0.146,0.021,0.218,0.021 c0.01,0,0.021,0,0.03,0c0.688-0.015,1.24-0.577,1.24-1.269c0-0.38-0.168-0.721-0.432-0.953l-5.387-5.352l2.119-12.236 c0.061,0.002,0.121,0.004,0.18,0.004c4.1,0,7.582-2.936,8.281-6.979l3.847-22.203l3.848,22.203 c0.699,4.044,4.184,6.979,8.28,6.979l0,0c0.06,0,0.119-0.002,0.181-0.004l2.118,12.236l-5.44,5.405 c-0.393,0.391-0.486,0.989-0.231,1.481c0.22,0.426,0.657,0.686,1.126,0.686c0.071,0,0.145-0.006,0.217-0.02l13.447-2.328 c0.546-0.096,0.967-0.533,1.04-1.08C67.536,72.115,67.245,71.58,66.744,71.346z M29.687,19.523l11.584,2.007l-1.037,5.995 l-11.584-2.007L29.687,19.523z M29.737,53.662c-3.193-0.554-5.342-3.603-4.789-6.795l3.267-18.852l11.584,2.007l-3.267,18.851 c-0.488,2.826-2.92,4.877-5.782,4.877C30.414,53.75,30.073,53.721,29.737,53.662z M29.252,72.887l-5.522-0.955l3.097-1.454 L29.252,72.887z M49.223,48.873l-3.266-18.851l11.583-2.007l3.267,18.852c0.269,1.547-0.082,3.104-0.986,4.39 c-0.904,1.282-2.254,2.138-3.803,2.405c-0.334,0.059-0.675,0.088-1.012,0.088C52.145,53.75,49.712,51.699,49.223,48.873z M56.068,19.523l1.039,5.995l-11.584,2.007l-1.039-5.995L56.068,19.523z M56.504,72.887l2.428-2.409l3.094,1.454L56.504,72.887z"></path> <path fill="#FFFFFF" d="M49.398,31.026c-0.334,0-0.66,0.135-0.896,0.372c-0.234,0.235-0.37,0.562-0.37,0.896 c0,0.333,0.136,0.661,0.37,0.896c0.236,0.236,0.564,0.372,0.896,0.372c0.334,0,0.66-0.135,0.896-0.372 c0.236-0.235,0.371-0.563,0.371-0.896c0-0.334-0.135-0.661-0.371-0.896C50.061,31.162,49.732,31.026,49.398,31.026z"></path> <path fill="#FFFFFF" d="M57.131,33.19c0.236-0.235,0.372-0.563,0.372-0.896c0-0.333-0.136-0.661-0.372-0.896 c-0.236-0.237-0.563-0.372-0.896-0.372s-0.66,0.135-0.896,0.372c-0.234,0.235-0.371,0.563-0.371,0.896 c0,0.333,0.137,0.661,0.371,0.896c0.236,0.236,0.563,0.372,0.896,0.372C56.566,33.562,56.895,33.427,57.131,33.19z"></path> <path fill="#FFFFFF" d="M53.434,35.694c-0.336,0-0.662,0.135-0.897,0.372c-0.235,0.235-0.37,0.562-0.37,0.896 c0,0.334,0.135,0.661,0.37,0.896c0.235,0.235,0.563,0.371,0.897,0.371c0.332,0,0.658-0.136,0.896-0.371 c0.235-0.236,0.372-0.563,0.372-0.896c0-0.333-0.137-0.661-0.372-0.896C54.094,35.828,53.766,35.694,53.434,35.694z"></path> <path fill="#FFFFFF" d="M29.521,35.271c-0.332,0-0.658,0.135-0.896,0.37c-0.233,0.237-0.372,0.563-0.372,0.898 c0,0.333,0.137,0.659,0.372,0.896c0.237,0.237,0.563,0.372,0.896,0.372c0.334,0,0.662-0.135,0.898-0.372 c0.234-0.237,0.37-0.563,0.37-0.896c0-0.335-0.136-0.661-0.37-0.898C30.183,35.406,29.856,35.271,29.521,35.271z"></path> <path fill="#FFFFFF" d="M35.565,39.457c0-0.333-0.135-0.661-0.373-0.896c-0.234-0.236-0.563-0.372-0.896-0.372 s-0.659,0.135-0.896,0.372c-0.237,0.235-0.373,0.563-0.373,0.896c0,0.335,0.136,0.661,0.373,0.896 c0.235,0.236,0.563,0.371,0.896,0.371s0.661-0.135,0.896-0.371C35.431,40.119,35.565,39.791,35.565,39.457z"></path> </g> </g> </g> </svg> 