<?xml version="1.0" encoding="UTF-8"?> <!-- Generator: Adobe Illustrator 16.0.3, SVG Export Plug-In . SVG Version: 6.00 Build 0) --> <svg xmlns="http://www.w3.org/2000/svg" xmlns:xlink="http://www.w3.org/1999/xlink" id="Layer_1" x="0px" y="0px" width="84.5px" height="80.5px" viewBox="0 0 84.5 80.5" xml:space="preserve"> <g> <g> <path fill="#FFFFFF" d="M42.535,23.685c-11.32,0-20.53,9.21-20.53,20.531c0,11.321,9.21,20.531,20.53,20.531 s20.529-9.21,20.529-20.531C63.064,32.895,53.855,23.685,42.535,23.685z M42.535,61.477c-9.518,0-17.262-7.744-17.262-17.261 c0-9.519,7.744-17.262,17.262-17.262c9.518,0,17.262,7.744,17.262,17.262C59.796,53.732,52.052,61.477,42.535,61.477z"></path> </g> </g> <g> <g> <path fill="#FFFFFF" d="M42.535,31.405c-7.063,0-12.81,5.747-12.81,12.81c0,7.063,5.747,12.811,12.81,12.811 c7.063,0,12.811-5.748,12.811-12.811C55.346,37.152,49.598,31.405,42.535,31.405z M42.535,53.928 c-5.356,0-9.713-4.357-9.713-9.712c0-5.356,4.357-9.713,9.713-9.713c5.355,0,9.713,4.357,9.713,9.713 C52.248,49.57,47.891,53.928,42.535,53.928z"></path> </g> </g> <g> <g> <path fill="#FFFFFF" d="M77.338,17.732H56.293l-2.15-5.854C53.512,10.157,51.855,9,50.021,9H35.048 c-1.834,0-3.491,1.157-4.123,2.878l-2.15,5.854h-7.151v-2.294c0-1.85-1.504-3.355-3.355-3.355h-4.952 c-1.85,0-3.355,1.505-3.355,3.355v2.294H7.73c-2.846,0-5.161,2.315-5.161,5.161v42.642c0,2.847,2.315,5.162,5.161,5.162h69.608 c2.846,0,5.162-2.315,5.162-5.162V22.894C82.5,20.048,80.184,17.732,77.338,17.732z M34.155,13.064 c0.137-0.373,0.496-0.623,0.894-0.623h14.973c0.396,0,0.756,0.25,0.894,0.623l1.714,4.668H32.441L34.155,13.064z M13.232,15.438 c0-0.047,0.039-0.086,0.086-0.086h4.953c0.047,0,0.085,0.039,0.085,0.086v2.294h-5.124V15.438z M6.011,30.752h5.096v26.926H6.011 V30.752z M79.059,65.536c0,0.948-0.771,1.721-1.721,1.721H7.73c-0.949,0-1.72-0.771-1.72-1.721v-4.417h6.816 c0.951,0,1.721-0.771,1.721-1.721V29.032c0-0.951-0.77-1.721-1.721-1.721H6.011v-4.418c0-0.948,0.771-1.72,1.72-1.72h47.348 c0.005,0,0.01,0,0.014,0c0.003,0,0.007,0,0.011,0h22.234c0.948,0,1.721,0.772,1.721,1.72v4.418h-6.816 c-0.95,0-1.721,0.77-1.721,1.721v30.364c0,0.951,0.771,1.722,1.721,1.722h6.816V65.536L79.059,65.536z M79.059,57.678h-5.096 V30.752h5.096V57.678z"></path> </g> </g> <g> <g> <path fill="#FFFFFF" d="M42.535,37.885c-3.49,0-6.33,2.84-6.33,6.33c0,0.854,0.693,1.549,1.548,1.549s1.549-0.693,1.549-1.549 c0-1.783,1.45-3.232,3.232-3.232c0.854,0,1.549-0.693,1.549-1.549C44.083,38.579,43.389,37.885,42.535,37.885z"></path> </g> </g> </svg> 