<?xml version="1.0" encoding="UTF-8"?> <!-- Generator: Adobe Illustrator 16.0.3, SVG Export Plug-In . SVG Version: 6.00 Build 0) --> <svg xmlns="http://www.w3.org/2000/svg" xmlns:xlink="http://www.w3.org/1999/xlink" id="Layer_1" x="0px" y="0px" width="84.5px" height="80.5px" viewBox="0 0 84.5 80.5" xml:space="preserve"> <g id="Layer_2_1_"> <path fill="#FFFFFF" d="M51.604,5v2.22c7.248,0,13.146,5.897,13.146,13.146l2.221,0.001C66.973,11.895,60.075,5,51.604,5z M51.604,8.836v2.222c5.138,0,9.311,4.175,9.311,9.31h2.223C63.137,14.011,57.961,8.836,51.604,8.836z M57.074,19.129v53.68 c0,2.305-1.883,4.191-4.189,4.191H25.217c-2.302,0-4.189-1.889-4.189-4.191v-53.68c0-2.305,1.888-4.189,4.189-4.189h27.667 C55.191,14.94,57.074,16.824,57.074,19.129z M34.121,18.468c0,0.28,0.225,0.506,0.51,0.506h8.852c0.279,0,0.511-0.224,0.511-0.506 c0-0.282-0.229-0.51-0.511-0.51h-8.852C34.346,17.959,34.121,18.188,34.121,18.468z M41.148,72.809c0-1.16-0.937-2.093-2.092-2.093 c-1.156,0-2.096,0.933-2.096,2.093c0,1.157,0.939,2.098,2.096,2.098C40.209,74.905,41.148,73.966,41.148,72.809z M54.162,21.584 H23.943v47.657h30.219V21.584z"></path> </g> </svg> 